<svg width="114" height="23" viewBox="0 0 114 23" fill="none" xmlns="http://www.w3.org/2000/svg">
<path d="M5.14286 12.2857C5.14286 12.1339 5.08036 11.9911 4.97321 11.8839L0.973214 7.88393C0.866071 7.77678 0.723214 7.71428 0.571429 7.71428C0.258929 7.71428 0 7.97321 0 8.28571V16.2857C0 16.5982 0.258929 16.8571 0.571429 16.8571C0.723214 16.8571 0.866071 16.7946 0.973214 16.6875L4.97321 12.6875C5.08036 12.5804 5.14286 12.4375 5.14286 12.2857ZM22.698 10.32C22.4953 9.94667 22.202 9.664 21.818 9.472C21.4447 9.26933 21.002 9.168 20.49 9.168C19.6047 9.168 18.8953 9.46133 18.362 10.048C17.8287 10.624 17.562 11.3973 17.562 12.368C17.562 13.4027 17.8393 14.2133 18.394 14.8C18.9593 15.376 19.7327 15.664 20.714 15.664C21.386 15.664 21.9513 15.4933 22.41 15.152C22.8793 14.8107 23.2207 14.32 23.434 13.68H19.962V11.664H25.914V14.208C25.7113 14.8907 25.3647 15.5253 24.874 16.112C24.394 16.6987 23.7807 17.1733 23.034 17.536C22.2873 17.8987 21.4447 18.08 20.506 18.08C19.3967 18.08 18.4047 17.84 17.53 17.36C16.666 16.8693 15.9887 16.192 15.498 15.328C15.018 14.464 14.778 13.4773 14.778 12.368C14.778 11.2587 15.018 10.272 15.498 9.408C15.9887 8.53333 16.666 7.856 17.53 7.376C18.394 6.88533 19.3807 6.64 20.49 6.64C21.834 6.64 22.9647 6.96533 23.882 7.616C24.81 8.26667 25.4233 9.168 25.722 10.32H22.698ZM35.8455 13.392C35.8455 13.648 35.8295 13.9147 35.7975 14.192H29.6055C29.6482 14.7467 29.8242 15.1733 30.1335 15.472C30.4535 15.76 30.8428 15.904 31.3015 15.904C31.9842 15.904 32.4588 15.616 32.7255 15.04H35.6375C35.4882 15.6267 35.2162 16.1547 34.8215 16.624C34.4375 17.0933 33.9522 17.4613 33.3655 17.728C32.7788 17.9947 32.1228 18.128 31.3975 18.128C30.5228 18.128 29.7442 17.9413 29.0615 17.568C28.3788 17.1947 27.8455 16.6613 27.4615 15.968C27.0775 15.2747 26.8855 14.464 26.8855 13.536C26.8855 12.608 27.0722 11.7973 27.4455 11.104C27.8295 10.4107 28.3628 9.87733 29.0455 9.504C29.7282 9.13067 30.5122 8.944 31.3975 8.944C32.2615 8.944 33.0295 9.12533 33.7015 9.488C34.3735 9.85067 34.8962 10.368 35.2695 11.04C35.6535 11.712 35.8455 12.496 35.8455 13.392ZM33.0455 12.672C33.0455 12.2027 32.8855 11.8293 32.5655 11.552C32.2455 11.2747 31.8455 11.136 31.3655 11.136C30.9068 11.136 30.5175 11.2693 30.1975 11.536C29.8882 11.8027 29.6962 12.1813 29.6215 12.672H33.0455ZM42.2649 15.68V18H40.8729C39.8809 18 39.1075 17.76 38.5529 17.28C37.9982 16.7893 37.7209 15.9947 37.7209 14.896V11.344H36.6329V9.072H37.7209V6.896H40.4569V9.072H42.2489V11.344H40.4569V14.928C40.4569 15.1947 40.5209 15.3867 40.6489 15.504C40.7769 15.6213 40.9902 15.68 41.2889 15.68H42.2649ZM48.5555 8.144C48.0755 8.144 47.6808 8.00533 47.3715 7.728C47.0728 7.44 46.9235 7.088 46.9235 6.672C46.9235 6.24533 47.0728 5.89333 47.3715 5.616C47.6808 5.328 48.0755 5.184 48.5555 5.184C49.0248 5.184 49.4088 5.328 49.7075 5.616C50.0168 5.89333 50.1715 6.24533 50.1715 6.672C50.1715 7.088 50.0168 7.44 49.7075 7.728C49.4088 8.00533 49.0248 8.144 48.5555 8.144ZM49.9155 9.072V18H47.1795V9.072H49.9155ZM57.3383 8.976C58.3836 8.976 59.2156 9.31733 59.8343 10C60.4636 10.672 60.7783 11.6 60.7783 12.784V18H58.0583V13.152C58.0583 12.5547 57.9036 12.0907 57.5943 11.76C57.2849 11.4293 56.8689 11.264 56.3463 11.264C55.8236 11.264 55.4076 11.4293 55.0983 11.76C54.7889 12.0907 54.6343 12.5547 54.6343 13.152V18H51.8983V9.072H54.6343V10.256C54.9116 9.86133 55.2849 9.552 55.7543 9.328C56.2236 9.09333 56.7516 8.976 57.3383 8.976ZM71.0461 15.68V18H69.6541C68.6621 18 67.8888 17.76 67.3341 17.28C66.7795 16.7893 66.5021 15.9947 66.5021 14.896V11.344H65.4141V9.072H66.5021V6.896H69.2381V9.072H71.0301V11.344H69.2381V14.928C69.2381 15.1947 69.3021 15.3867 69.4301 15.504C69.5581 15.6213 69.7715 15.68 70.0701 15.68H71.0461ZM76.6341 18.128C75.7595 18.128 74.9701 17.9413 74.2661 17.568C73.5728 17.1947 73.0235 16.6613 72.6181 15.968C72.2235 15.2747 72.0261 14.464 72.0261 13.536C72.0261 12.6187 72.2288 11.8133 72.6341 11.12C73.0395 10.416 73.5941 9.87733 74.2981 9.504C75.0021 9.13067 75.7915 8.944 76.6661 8.944C77.5408 8.944 78.3301 9.13067 79.0341 9.504C79.7381 9.87733 80.2928 10.416 80.6981 11.12C81.1035 11.8133 81.3061 12.6187 81.3061 13.536C81.3061 14.4533 81.0981 15.264 80.6821 15.968C80.2768 16.6613 79.7168 17.1947 79.0021 17.568C78.2981 17.9413 77.5088 18.128 76.6341 18.128ZM76.6341 15.76C77.1568 15.76 77.5995 15.568 77.9621 15.184C78.3355 14.8 78.5221 14.2507 78.5221 13.536C78.5221 12.8213 78.3408 12.272 77.9781 11.888C77.6261 11.504 77.1888 11.312 76.6661 11.312C76.1328 11.312 75.6901 11.504 75.3381 11.888C74.9861 12.2613 74.8101 12.8107 74.8101 13.536C74.8101 14.2507 74.9808 14.8 75.3221 15.184C75.6741 15.568 76.1115 15.76 76.6341 15.76ZM91.5736 9.072V18H88.8376V16.784C88.5603 17.1787 88.1816 17.4987 87.7016 17.744C87.2323 17.9787 86.7096 18.096 86.1336 18.096C85.451 18.096 84.8483 17.9467 84.3256 17.648C83.803 17.3387 83.3976 16.896 83.1096 16.32C82.8216 15.744 82.6776 15.0667 82.6776 14.288V9.072H85.3976V13.92C85.3976 14.5173 85.5523 14.9813 85.8616 15.312C86.171 15.6427 86.587 15.808 87.1096 15.808C87.643 15.808 88.0643 15.6427 88.3736 15.312C88.683 14.9813 88.8376 14.5173 88.8376 13.92V9.072H91.5736ZM92.9949 13.536C92.9949 12.608 93.1815 11.7973 93.5549 11.104C93.9389 10.4107 94.4669 9.87733 95.1389 9.504C95.8215 9.13067 96.6002 8.944 97.4749 8.944C98.5949 8.944 99.5282 9.23733 100.275 9.824C101.032 10.4107 101.528 11.2373 101.763 12.304H98.8509C98.6055 11.6213 98.1309 11.28 97.4269 11.28C96.9255 11.28 96.5255 11.4773 96.2269 11.872C95.9282 12.256 95.7789 12.8107 95.7789 13.536C95.7789 14.2613 95.9282 14.8213 96.2269 15.216C96.5255 15.6 96.9255 15.792 97.4269 15.792C98.1309 15.792 98.6055 15.4507 98.8509 14.768H101.763C101.528 15.8133 101.032 16.6347 100.275 17.232C99.5175 17.8293 98.5842 18.128 97.4749 18.128C96.6002 18.128 95.8215 17.9413 95.1389 17.568C94.4669 17.1947 93.9389 16.6613 93.5549 15.968C93.1815 15.2747 92.9949 14.464 92.9949 13.536ZM108.714 8.976C109.738 8.976 110.56 9.31733 111.178 10C111.797 10.672 112.106 11.6 112.106 12.784V18H109.386V13.152C109.386 12.5547 109.232 12.0907 108.922 11.76C108.613 11.4293 108.197 11.264 107.674 11.264C107.152 11.264 106.736 11.4293 106.426 11.76C106.117 12.0907 105.962 12.5547 105.962 13.152V18H103.226V6.16H105.962V10.272C106.24 9.87733 106.618 9.56267 107.098 9.328C107.578 9.09333 108.117 8.976 108.714 8.976Z" fill="#FFD723"/>
<path d="M5.71875 19.6H14.2564V20.4H5.71875V19.6Z" fill="#FFD723"/>
<path d="M14.25 19.6H113.018V20.4H14.25V19.6Z" fill="#FFD723"/>
</svg>
